<?xml version="1.0" encoding="UTF-8" standalone="no"?>
<!DOCTYPE svg PUBLIC "-//W3C//DTD SVG 1.1//EN" "http://www.w3.org/Graphics/SVG/1.1/DTD/svg11.dtd">
<svg width="100%" height="100%" viewBox="0 0 64 64" version="1.1" xmlns="http://www.w3.org/2000/svg" xmlns:xlink="http://www.w3.org/1999/xlink" xml:space="preserve" xmlns:serif="http://www.serif.com/" style="fill-rule:evenodd;clip-rule:evenodd;stroke-linejoin:round;stroke-miterlimit:2;">
    <g transform="matrix(0.897363,0,0,0.897363,3.28561,-2.2258)">
        <path d="M49.488,35.069L51.217,33.34C52.849,31.773 52.972,29.169 51.494,27.456C50.932,26.824 50.189,26.379 49.367,26.181L49.717,25.831C51.354,24.266 51.477,21.657 49.994,19.945C49.23,19.087 48.143,18.583 46.994,18.555C45.844,18.533 44.733,18.973 43.91,19.776L43.717,19.969C42.978,19.266 42.004,18.861 40.985,18.831C39.839,18.81 38.731,19.251 37.914,20.056L35.923,22.047C35.473,20.171 33.784,18.837 31.855,18.833L31.849,18.833C30.742,18.832 29.68,19.273 28.9,20.058L21.3,27.658C21.158,26.427 20.581,25.287 19.674,24.443C18.446,23.334 16.538,23.387 15.374,24.563L8.174,31.763C1.631,38.113 1.239,48.628 7.291,55.448C11.384,60.002 17.658,61.968 23.619,60.564C24.378,60.667 25.142,60.72 25.908,60.722C30.378,60.725 34.668,58.938 37.814,55.763L51.344,42.243C52.972,40.67 53.093,38.067 51.618,36.35C51.056,35.715 50.312,35.268 49.488,35.069ZM50.007,28.792C50.764,29.724 50.676,31.098 49.807,31.926L45.37,36.363C45.341,36.335 45.309,36.313 45.28,36.287C45.209,36.224 45.137,36.163 45.063,36.106C44.989,36.049 44.887,35.978 44.796,35.918C44.724,35.871 44.652,35.818 44.577,35.779C44.469,35.718 44.357,35.666 44.245,35.615C44.18,35.585 44.118,35.552 44.052,35.526C43.87,35.453 43.683,35.393 43.493,35.348L44.875,33.965L45.222,33.62C45.399,33.44 45.56,33.245 45.704,33.038C45.765,32.953 45.816,32.864 45.87,32.776C45.936,32.666 45.999,32.556 46.056,32.442C46.113,32.328 46.18,32.184 46.232,32.051C46.25,32.002 46.264,31.951 46.281,31.905C46.473,31.355 46.553,30.772 46.516,30.191L46.516,30.182C46.503,29.993 46.477,29.805 46.438,29.62C46.43,29.58 46.419,29.54 46.41,29.5C46.387,29.4 46.371,29.3 46.341,29.211L46.857,28.695C47.275,28.275 47.85,28.048 48.442,28.067C49.041,28.081 49.609,28.344 50.007,28.792ZM45.324,21.192C45.753,20.768 46.337,20.537 46.94,20.553C47.541,20.569 48.11,20.834 48.509,21.284C49.267,22.216 49.176,23.592 48.303,24.416L45.44,27.278L45.42,27.299L45.243,27.477C45.218,27.454 45.191,27.435 45.167,27.413C45.087,27.342 45.007,27.273 44.923,27.213C44.839,27.153 44.766,27.1 44.686,27.047C44.606,26.994 44.525,26.938 44.44,26.89C44.355,26.842 44.24,26.79 44.14,26.744C44.064,26.708 43.99,26.669 43.912,26.638C43.737,26.569 43.557,26.511 43.374,26.466L43.363,26.466L43.714,26.116C43.902,25.925 44.072,25.717 44.222,25.495C44.248,25.458 44.271,25.421 44.295,25.383C44.41,25.207 44.513,25.022 44.602,24.831C44.627,24.778 44.654,24.731 44.677,24.674C44.769,24.456 44.844,24.23 44.9,24C44.918,23.927 44.926,23.853 44.94,23.78C44.97,23.625 44.992,23.468 45.006,23.31C45.014,23.21 45.018,23.11 45.019,23.003C45.019,22.865 45.012,22.728 45,22.59C44.991,22.49 44.987,22.39 44.972,22.298C44.94,22.091 44.892,21.887 44.829,21.687L45.324,21.192ZM13.145,57.422C11.495,56.594 10.012,55.468 8.772,54.1C3.437,48.064 3.801,38.775 9.591,33.175L16.791,25.975C17.008,25.757 17.302,25.634 17.609,25.633C17.868,25.629 18.118,25.725 18.309,25.9C18.965,26.515 19.338,27.375 19.338,28.274C19.338,29.136 18.995,29.963 18.386,30.573L11.615,37.34C11.42,37.528 11.31,37.788 11.31,38.059C11.31,38.608 11.761,39.059 12.31,39.059C12.581,39.059 12.841,38.949 13.029,38.754L19.793,31.991L30.312,21.472C30.719,21.062 31.274,20.832 31.852,20.833C33.053,20.834 34.041,21.822 34.041,23.023C34.041,23.603 33.81,24.16 33.4,24.571L22.136,35.837C21.941,36.025 21.831,36.285 21.831,36.556C21.831,37.105 22.282,37.556 22.831,37.556C23.102,37.556 23.362,37.446 23.55,37.251L34.815,25.985L39.331,21.47C39.741,21.06 40.298,20.829 40.878,20.829C41.5,20.829 42.093,21.094 42.508,21.557C42.785,21.869 42.959,22.258 43.008,22.672C43.008,22.699 43.008,22.728 43.013,22.756C43.023,22.861 43.026,22.967 43.021,23.073C43.021,23.11 43.014,23.147 43.011,23.184C43.001,23.285 42.986,23.385 42.964,23.484C42.956,23.52 42.947,23.556 42.937,23.592C42.908,23.698 42.872,23.802 42.829,23.903C42.819,23.928 42.809,23.953 42.798,23.977C42.675,24.244 42.506,24.486 42.298,24.694L39.977,27.015L39.431,27.56L39.425,27.567L39.425,27.572L26.645,40.346C26.45,40.534 26.34,40.794 26.34,41.065C26.34,41.614 26.791,42.065 27.34,42.065C27.611,42.065 27.871,41.955 28.059,41.76L40.834,28.985C40.875,28.944 40.922,28.915 40.965,28.878C41.362,28.545 41.86,28.359 42.378,28.349L42.438,28.349C42.587,28.353 42.735,28.372 42.88,28.405C43.317,28.508 43.711,28.743 44.009,29.079C44.235,29.335 44.392,29.645 44.463,29.979C44.637,30.786 44.387,31.628 43.801,32.21L43.601,32.41L39.544,36.457C39.535,36.466 39.533,36.477 39.524,36.486L31.153,44.857C30.958,45.045 30.848,45.305 30.848,45.576C30.848,46.125 31.299,46.576 31.848,46.576C32.119,46.576 32.379,46.466 32.567,46.271L40.967,37.877C41.275,37.568 41.669,37.359 42.098,37.277L42.127,37.269C42.273,37.243 42.422,37.232 42.571,37.237C42.706,37.242 42.839,37.259 42.971,37.288L43.013,37.294C43.064,37.306 43.113,37.329 43.16,37.344C43.537,37.459 43.876,37.675 44.141,37.967C44.235,38.072 44.318,38.186 44.388,38.308C44.867,39.235 44.68,40.374 43.931,41.1L30.4,54.624C30.125,54.899 29.841,55.16 29.55,55.41C29.496,55.455 29.441,55.497 29.387,55.542C29.155,55.735 28.92,55.921 28.679,56.099C28.585,56.168 28.488,56.234 28.393,56.299C28.187,56.443 27.978,56.582 27.767,56.715C27.651,56.788 27.535,56.858 27.417,56.928C27.217,57.043 27.023,57.153 26.822,57.26C26.69,57.33 26.557,57.4 26.422,57.466C26.236,57.558 26.047,57.643 25.857,57.726C25.706,57.793 25.557,57.862 25.401,57.926C25.245,57.99 25.077,58.046 24.915,58.105C24.727,58.173 24.541,58.244 24.351,58.305C24.314,58.317 24.276,58.326 24.239,58.337C23.947,58.427 23.652,58.51 23.354,58.582C23.345,58.582 23.338,58.591 23.328,58.594C19.903,59.419 16.293,59.003 13.145,57.422ZM36.4,54.346C34.331,56.431 31.687,57.855 28.807,58.434C28.867,58.396 28.921,58.349 28.981,58.31C29.303,58.103 29.613,57.875 29.923,57.644C30.103,57.511 30.289,57.387 30.463,57.244C30.836,56.944 31.193,56.616 31.544,56.279C31.632,56.196 31.729,56.124 31.814,56.039L45.344,42.509C45.525,42.324 45.688,42.123 45.834,41.909C45.884,41.838 45.926,41.765 45.972,41.692C46.051,41.565 46.123,41.435 46.189,41.301C46.245,41.187 46.297,41.074 46.343,40.957C46.372,40.882 46.395,40.805 46.42,40.728C46.593,40.213 46.667,39.67 46.638,39.128L46.638,39.038C46.626,38.868 46.603,38.698 46.569,38.531C46.556,38.464 46.538,38.399 46.522,38.331C46.506,38.263 46.489,38.167 46.464,38.088L46.957,37.594C47.367,37.181 47.926,36.948 48.509,36.948C49.13,36.948 49.722,37.213 50.137,37.675C50.891,38.613 50.801,39.989 49.931,40.821L36.4,54.346Z" style="fill-rule:nonzero;"/>
        <path d="M60.707,7.293C60.319,6.905 59.681,6.905 59.293,7.293L53.293,13.293C53.098,13.481 52.988,13.741 52.988,14.012C52.988,14.561 53.439,15.012 53.988,15.012C54.259,15.012 54.519,14.902 54.707,14.707L60.707,8.707C61.095,8.319 61.095,7.681 60.707,7.293Z" style="fill-rule:nonzero;"/>
        <path d="M59.553,15.105L55.553,17.105C55.214,17.274 55,17.622 55,18C55,18.549 55.451,19 56,19C56.155,19 56.308,18.964 56.447,18.895L60.447,16.895C60.786,16.726 61,16.378 61,16C61,15.451 60.549,15 60,15C59.845,15 59.692,15.036 59.553,15.105Z" style="fill-rule:nonzero;"/>
        <path d="M49.485,12.857C49.955,13.139 50.574,12.985 50.857,12.515L53.857,7.515C53.945,7.363 53.991,7.191 53.991,7.015C53.991,6.467 53.539,6.015 52.991,6.015C52.646,6.015 52.326,6.193 52.143,6.485L49.143,11.485C48.861,11.955 49.015,12.574 49.485,12.857Z" style="fill-rule:nonzero;"/>
        <path d="M25.081,11.394C25.241,11.754 25.6,11.987 25.994,11.987C26.543,11.987 26.994,11.535 26.994,10.987C26.994,10.856 26.969,10.727 26.919,10.606L23.919,3.606C23.759,3.246 23.4,3.013 23.006,3.013C22.457,3.013 22.006,3.465 22.006,4.013C22.006,4.144 22.031,4.273 22.081,4.394L25.081,11.394Z" style="fill-rule:nonzero;"/>
        <path d="M30,12C30.549,12 31,11.549 31,11L31,5C31,4.451 30.549,4 30,4C29.451,4 29,4.451 29,5L29,11C29,11.549 29.451,12 30,12Z" style="fill-rule:nonzero;"/>
        <path d="M21.219,13.625C21.409,13.862 21.696,14 22,14C22.549,14 23,13.549 23,13C23,12.773 22.923,12.552 22.781,12.375L18.781,7.375C18.591,7.138 18.304,7 18,7C17.451,7 17,7.451 17,8C17,8.227 17.077,8.448 17.219,8.625L21.219,13.625Z" style="fill-rule:nonzero;"/>
    </g>
</svg>
