<?xml version="1.0" encoding="UTF-8" standalone="no"?>
<!DOCTYPE svg PUBLIC "-//W3C//DTD SVG 1.1//EN" "http://www.w3.org/Graphics/SVG/1.1/DTD/svg11.dtd">
<svg width="100%" height="100%" viewBox="0 0 283 283" version="1.1" xmlns="http://www.w3.org/2000/svg" xmlns:xlink="http://www.w3.org/1999/xlink" xml:space="preserve" xmlns:serif="http://www.serif.com/" style="fill-rule:evenodd;clip-rule:evenodd;stroke-linejoin:round;stroke-miterlimit:2;">
    <g>
        <path d="M135.87,189.15L135.87,203.15C135.87,206.442 138.578,209.15 141.87,209.15C145.162,209.15 147.87,206.442 147.87,203.15L147.87,189.14C189.51,187.2 222.32,165.72 222.32,139.5C222.32,113.28 189.5,91.8 147.87,89.86L147.87,80.26C147.87,76.968 145.162,74.26 141.87,74.26C138.578,74.26 135.87,76.968 135.87,80.26L135.87,89.84C94.1,91.7 61.15,113.22 61.15,139.5C61.15,165.78 94.1,187.3 135.87,189.15ZM141.87,120.7C145.162,120.7 147.87,117.992 147.87,114.7L147.87,101.86C164.87,102.72 180.48,107.12 192.41,114.49C207.99,124.12 210.32,134.29 210.32,139.49C210.32,144.69 207.99,154.87 192.41,164.49C179.06,172.74 161.06,177.28 141.74,177.28C132.075,177.319 122.446,176.112 113.09,173.69L125.54,148.17C127.883,143.27 125.969,137.316 121.21,134.7L121.07,134.62C117.751,132.673 113.609,132.734 110.35,134.78L79.25,154.61C74.15,148.47 73.15,142.91 73.15,139.5C73.15,134.29 75.48,124.12 91.06,114.5C103.06,107.09 118.79,102.68 135.87,101.86L135.87,114.7C135.87,117.992 138.578,120.7 141.87,120.7Z" style="fill-rule:nonzero;"/>
    </g>
</svg>
