<?xml version="1.0" encoding="UTF-8" standalone="no"?>
<!DOCTYPE svg PUBLIC "-//W3C//DTD SVG 1.1//EN" "http://www.w3.org/Graphics/SVG/1.1/DTD/svg11.dtd">
<svg width="100%" height="100%" viewBox="0 0 283 283" version="1.1" xmlns="http://www.w3.org/2000/svg" xmlns:xlink="http://www.w3.org/1999/xlink" xml:space="preserve" xmlns:serif="http://www.serif.com/" style="fill-rule:evenodd;clip-rule:evenodd;stroke-linejoin:round;stroke-miterlimit:2;">
    <g transform="matrix(0.947288,0,0,0.947288,7.2537,-6.02961)">
        <path d="M217.75,204.65C224.778,193.205 228.742,180.141 229.26,166.72L229.32,166.72L229.32,119.72C229.32,74.25 190.1,37.38 141.73,37.38C93.36,37.38 54.14,74.27 54.14,119.74L54.14,166.74L54.2,166.74C54.718,180.161 58.682,193.225 65.71,204.67L54.28,227.3C53.857,228.139 53.636,229.065 53.636,230.005C53.636,233.299 56.346,236.009 59.64,236.009C61.903,236.009 63.981,234.73 65,232.71L73.67,215.53C89.73,234.15 114.25,246.06 141.74,246.06C169.23,246.06 193.74,234.15 209.81,215.53L218.48,232.71C219.513,234.687 221.567,235.931 223.797,235.931C227.089,235.931 229.797,233.222 229.797,229.931C229.797,229.019 229.59,228.119 229.19,227.3L217.75,204.65ZM141.75,234.06C100.07,234.06 66.16,202.51 66.16,163.72C66.16,124.93 100.07,93.38 141.75,93.38C183.43,93.38 217.34,124.93 217.34,163.72C217.34,202.51 183.41,234.06 141.73,234.06L141.75,234.06Z" style="fill-rule:nonzero;"/>
        <circle cx="165.41" cy="185.15" r="19.02"/>
    </g>
</svg>
