<?xml version="1.0" encoding="UTF-8" standalone="no"?>
<!DOCTYPE svg PUBLIC "-//W3C//DTD SVG 1.1//EN" "http://www.w3.org/Graphics/SVG/1.1/DTD/svg11.dtd">
<svg width="100%" height="100%" viewBox="0 0 283 283" version="1.1" xmlns="http://www.w3.org/2000/svg" xmlns:xlink="http://www.w3.org/1999/xlink" xml:space="preserve" xmlns:serif="http://www.serif.com/" style="fill-rule:evenodd;clip-rule:evenodd;stroke-linejoin:round;stroke-miterlimit:2;">
    <g>
        <path d="M69.83,144C65.46,149.63 63.14,155.71 63.14,161.89C63.14,173.11 70.74,183.99 84.53,192.51C98.32,201.03 116.35,206.04 135.87,206.88L135.87,221.2C135.87,224.492 138.578,227.2 141.87,227.2C145.162,227.2 147.87,224.492 147.87,221.2L147.87,206.84C167.28,205.96 185.23,200.95 198.94,192.48C212.65,184.01 220.33,173.08 220.33,161.86C220.33,155.68 218.01,149.61 213.64,143.97C215.649,141.55 217.376,138.91 218.79,136.1C221.085,131.574 222.293,126.575 222.32,121.5C222.32,95.27 189.51,73.8 147.87,71.86L147.87,62.26C147.87,58.968 145.162,56.26 141.87,56.26C138.578,56.26 135.87,58.968 135.87,62.26L135.87,71.84C94.1,73.7 61.15,95.22 61.15,121.5C61.177,126.575 62.385,131.574 64.68,136.1C66.092,138.92 67.819,141.57 69.83,144ZM73.15,121.52C73.15,116.31 75.48,106.14 91.06,96.52C103.06,89.11 118.79,84.7 135.87,83.88L135.87,96.7C135.87,99.992 138.578,102.7 141.87,102.7C145.162,102.7 147.87,99.992 147.87,96.7L147.87,83.86C164.87,84.72 180.48,89.12 192.41,96.49C207.99,106.12 210.32,116.29 210.32,121.49C210.32,126.69 207.99,136.87 192.41,146.49C179.06,154.74 161.06,159.28 141.74,159.28C132.065,159.318 122.425,158.108 113.06,155.68L125.54,130.09C127.883,125.19 125.969,119.236 121.21,116.62L121.07,116.54C117.751,114.593 113.609,114.654 110.35,116.7L79.21,136.56C74.15,130.44 73.15,124.91 73.15,121.5L73.15,121.52Z" style="fill-rule:nonzero;"/>
    </g>
</svg>
