<?xml version="1.0" encoding="UTF-8" standalone="no"?>
<!DOCTYPE svg PUBLIC "-//W3C//DTD SVG 1.1//EN" "http://www.w3.org/Graphics/SVG/1.1/DTD/svg11.dtd">
<svg width="100%" height="100%" viewBox="0 0 283 283" version="1.1" xmlns="http://www.w3.org/2000/svg" xmlns:xlink="http://www.w3.org/1999/xlink" xml:space="preserve" xmlns:serif="http://www.serif.com/" style="fill-rule:evenodd;clip-rule:evenodd;stroke-linejoin:round;stroke-miterlimit:2;">
    <g>
        <path d="M220.39,58.8L192.73,86.46C178.73,79.61 161,75.46 141.73,75.46C122.46,75.46 104.73,79.56 90.73,86.46L63.08,58.8C61.958,57.698 60.447,57.079 58.874,57.079C55.583,57.079 52.874,59.788 52.874,63.079C52.874,64.655 53.495,66.168 54.6,67.29L80,92.72C67.17,101.72 59.37,113.48 59.37,126.39L59.37,169.54C59.37,197.64 96.23,220.42 141.71,220.42C187.19,220.42 224.04,197.64 224.04,169.54L224.04,126.39C224.04,113.47 216.24,101.69 203.41,92.72L228.84,67.29C229.945,66.168 230.566,64.655 230.566,63.079C230.566,59.788 227.857,57.079 224.566,57.079C222.993,57.079 221.482,57.698 220.36,58.8L220.39,58.8ZM212.07,126.39C212.07,131.76 209.68,142.26 193.65,152.16C179.97,160.61 161.53,165.27 141.74,165.27C121.95,165.27 103.51,160.61 89.83,152.16C73.83,142.25 71.41,131.76 71.41,126.39C71.41,121.02 73.69,111.04 88.68,101.39L114.96,127.67C116.087,128.814 117.628,129.459 119.234,129.459C122.526,129.459 125.234,126.751 125.234,123.459C125.234,121.851 124.587,120.308 123.44,119.18L99.78,95.5C111.9,90.31 126.41,87.5 141.78,87.5C157.15,87.5 171.61,90.3 183.78,95.5L160,119.15C158.853,120.278 158.206,121.821 158.206,123.429C158.206,126.721 160.914,129.429 164.206,129.429C165.812,129.429 167.353,128.784 168.48,127.64L194.76,101.36C209.78,111 212.07,121.15 212.07,126.39Z" style="fill-rule:nonzero;"/>
    </g>
</svg>
