<?xml version="1.0" encoding="UTF-8" standalone="no"?>
<!DOCTYPE svg PUBLIC "-//W3C//DTD SVG 1.1//EN" "http://www.w3.org/Graphics/SVG/1.1/DTD/svg11.dtd">
<svg width="100%" height="100%" viewBox="0 0 283 283" version="1.1" xmlns="http://www.w3.org/2000/svg" xmlns:xlink="http://www.w3.org/1999/xlink" xml:space="preserve" xmlns:serif="http://www.serif.com/" style="fill-rule:evenodd;clip-rule:evenodd;stroke-linejoin:round;stroke-miterlimit:2;">
    <g>
        <path d="M213.36,106.2C213.36,81.75 181.29,61.93 141.73,61.93C102.17,61.93 70.1,81.75 70.1,106.2L70.1,177.27C70.1,201.72 102.17,221.54 141.73,221.54C181.29,221.54 213.36,201.72 213.36,177.27L213.36,106.2ZM82.1,106.2C82.1,101.85 84.1,93.33 97.39,85.11C108.88,78 125,73.93 141.73,73.93C158.46,73.93 174.58,78 186.07,85.1C199.37,93.32 201.36,101.85 201.36,106.19C201.36,110.53 199.36,119.06 186.07,127.28C184.71,128.12 183.28,128.92 181.79,129.67C180.36,129.786 179.019,130.411 178.01,131.43C167.57,135.94 154.81,138.43 141.73,138.43C125.04,138.43 108.88,134.36 97.39,127.26C84.09,119.07 82.1,110.55 82.1,106.2ZM105.68,202.62C105.805,202.133 105.869,201.633 105.87,201.13L105.87,144.51C115.283,147.809 125.119,149.745 135.08,150.26L135.08,209.26C124.978,208.702 115.041,206.458 105.68,202.62ZM147.08,150.33C157.019,149.935 166.852,148.14 176.29,145L176.29,201.15C176.289,201.831 176.404,202.507 176.63,203.15C167.193,206.855 157.208,208.977 147.08,209.43L147.08,150.33ZM82.08,130.72C85.653,133.984 89.604,136.807 93.85,139.13L93.85,196C83.7,188.55 82.08,181.2 82.08,177.27L82.08,130.72ZM188.27,196.92L188.27,139.83C193.006,137.376 197.403,134.317 201.35,130.73L201.35,177.28C201.36,181.36 199.6,189.16 188.29,196.92L188.27,196.92Z" style="fill-rule:nonzero;"/>
    </g>
</svg>
